<?xml version="1.0" encoding="UTF-8"?>
<svg version="1.1" xmlns="http://www.w3.org/2000/svg" width="602" height="616">
<path d="M0 0 C0.72077752 -0.00235223 1.44155504 -0.00470446 2.1841743 -0.00712797 C4.60013247 -0.01378649 7.01603647 -0.0133607 9.43200302 -0.01294994 C11.18151867 -0.01625055 12.93103355 -0.01997653 14.68054748 -0.02409142 C19.48931192 -0.03409751 24.29806389 -0.03782599 29.10683727 -0.04048073 C34.29322399 -0.04438801 39.47960087 -0.05396617 44.66598129 -0.0626936 C57.19315387 -0.08244786 69.72032725 -0.09252371 82.24751151 -0.10142139 C88.15064078 -0.1058067 94.05376917 -0.11117295 99.95689774 -0.11641026 C119.58782007 -0.13342284 139.21874184 -0.1479156 158.84967041 -0.155159 C163.94301224 -0.15706882 169.03635408 -0.15898916 174.12969589 -0.16094494 C176.02852684 -0.16167055 176.02852684 -0.16167055 177.965718 -0.16241082 C198.45855976 -0.1707058 218.95134305 -0.19603362 239.4441593 -0.22852562 C260.49656836 -0.26163191 281.54894775 -0.27961106 302.60138297 -0.28280324 C314.41621892 -0.28496521 326.23096965 -0.29366795 338.04578018 -0.31926441 C348.11100789 -0.34102032 358.17612967 -0.34899786 368.24137822 -0.33929763 C373.37170774 -0.33476687 378.50181894 -0.33656756 383.63211823 -0.35605907 C388.34042046 -0.37379177 393.04834673 -0.37261185 397.75665352 -0.35716178 C399.44857789 -0.35480093 401.14052901 -0.35902898 402.83241275 -0.37099043 C432.74210672 -0.569135 457.76196939 10.43314334 479.22149277 31.25922108 C495.06806672 47.11502023 506.68179073 70.96085759 506.79770967 93.61809981 C506.79622605 94.30310447 506.79474243 94.98810912 506.79321384 95.6938715 C506.79556607 96.43828625 506.7979183 97.182701 506.80034181 97.94967377 C506.80700284 100.4460391 506.80657447 102.94235202 506.80616379 105.43872547 C506.80946424 107.2459883 506.81319019 109.05325039 506.81730527 110.86051154 C506.82731313 115.82889798 506.83104012 120.79727235 506.83369458 125.76566744 C506.83760132 131.12383473 506.84717952 136.48199249 506.85590744 141.84015369 C506.87566311 154.78260627 506.88573769 167.72505962 506.89463523 180.6675235 C506.89902028 186.76590757 506.90438659 192.86429076 506.9096241 198.96267414 C506.92663675 219.2421205 506.94112963 239.52156632 506.94837284 259.80101871 C506.95028267 265.06280232 506.95220301 270.32458592 506.95415878 275.58636951 C506.95464252 276.89412542 506.95512626 278.20188132 506.95562466 279.54926619 C506.96392009 300.72109233 506.98924864 321.89286188 507.02173946 343.06466332 C507.05484245 364.81315998 507.0728246 386.56162792 507.07601708 408.31014991 C507.07817935 420.51622416 507.08688645 432.72221592 507.11247826 444.92826557 C507.13422963 455.32653237 507.14221391 465.72469664 507.13251147 476.1229836 C507.12797943 481.42343285 507.12978903 486.72367077 507.14927292 492.02409077 C507.16699621 496.88782462 507.1658331 501.75119442 507.15037563 506.61493263 C507.14801337 508.36338407 507.15225028 510.11186134 507.16420428 511.86027351 C507.33705052 538.8380683 498.92620331 561.33666991 481.65899277 582.13422108 C480.99383652 582.98629139 480.32868027 583.8383617 479.64336777 584.71625233 C465.36548364 602.11391034 440.62337885 613.35564814 418.65899277 616.13422108 C412.86661856 616.42123822 407.08300911 616.41341993 401.28470993 616.40164661 C399.53087785 616.40538787 397.77704744 616.40999128 396.02321965 616.41537726 C391.22573381 616.42756408 386.42831793 616.4273519 381.63082016 616.42498851 C376.4479242 616.42457924 371.26505034 616.43563002 366.08216476 616.44510365 C355.93554533 616.46169137 345.78894915 616.4672122 335.64231729 616.4683284 C327.39044203 616.46928002 319.13857442 616.47339599 310.88670158 616.47972965 C287.46908217 616.49733668 264.05148106 616.50656947 240.63385498 616.5050687 C239.37234332 616.50498879 238.11083166 616.50490888 236.81109238 616.50482655 C235.54803259 616.50474478 234.2849728 616.50466302 232.98363847 616.50457878 C212.52344355 616.50376624 192.06332231 616.52289742 171.60314869 616.55110328 C150.57317751 616.57986484 129.54324223 616.59364174 108.51325089 616.59191573 C96.71526194 616.59125291 84.91735022 616.59669743 73.11937904 616.61827183 C63.07256555 616.63652679 53.02586427 616.64079564 42.97904133 616.62725298 C37.85880764 616.62074486 32.73878898 616.62052781 27.61857605 616.63795948 C22.9197184 616.65379125 18.22124448 616.6507245 13.52239562 616.63339122 C11.83398827 616.63034338 10.14555155 616.63386873 8.45717888 616.64511137 C-18.29914627 616.8112971 -40.74062959 608.23772789 -61.34100723 591.13422108 C-62.6191127 590.1364867 -62.6191127 590.1364867 -63.92303848 589.11859608 C-81.30469381 574.85384501 -92.58991543 550.08953224 -95.34100723 528.13422108 C-95.62978991 522.1648405 -95.62016877 516.20364654 -95.60843277 510.2284441 C-95.6121737 508.41686488 -95.61677699 506.60528727 -95.62216341 504.7937122 C-95.63435421 499.83660496 -95.63413758 494.87956541 -95.63177466 489.92244661 C-95.6313655 484.56777024 -95.6424152 479.21311529 -95.6518898 473.85844898 C-95.66847969 463.37494112 -95.67399845 452.89145575 -95.67511456 442.40793585 C-95.67606607 433.88241459 -95.6801815 425.35690072 -95.68651581 416.8313818 C-95.70412339 392.63903711 -95.71335553 368.44671014 -95.71185486 344.254359 C-95.71177495 342.9510294 -95.71169504 341.64769981 -95.7116127 340.30487537 C-95.71153094 338.99994698 -95.71144918 337.69501858 -95.71136494 336.3505469 C-95.71055237 315.21136772 -95.7296841 294.07225985 -95.75788943 272.93310129 C-95.78664816 251.20704264 -95.80042806 229.48101873 -95.79870188 207.75494057 C-95.79803897 195.56571316 -95.8034877 183.37656049 -95.82505798 171.18735027 C-95.84330919 160.80749788 -95.84758485 150.4277541 -95.83403914 140.04789256 C-95.82752915 134.75753902 -95.82732082 129.46739361 -95.84474564 124.17706013 C-95.86056899 119.32277109 -95.85751899 114.46885362 -95.84017737 109.61457313 C-95.83712772 107.86963862 -95.84066193 106.12467574 -95.85189752 104.37977474 C-96.03274507 74.27103278 -85.21131057 49.20561721 -64.21600723 27.57172108 C-47.66530251 11.03064586 -23.51018718 0.03279871 0 0 Z " fill="#FEFEFE" transform="translate(95.34100723266602,-0.13422107696533203)"/>
<path d="M0 0 C3.65160783 0.11065478 5.6919988 1.41563745 8.4375 3.625 C21.03528347 13.4390036 35.85975815 17.09799267 51.3125 19.6875 C52.00947998 19.80706055 52.70645996 19.92662109 53.42456055 20.04980469 C71.20935361 22.7874527 89.5636328 22.25194632 107.5 22.5 C135.75134689 22.89070623 135.75134689 22.89070623 146.37109375 23.47265625 C147.06525391 23.51052246 147.75941406 23.54838867 148.47460938 23.58740234 C153.61574327 23.90361138 158.6461802 24.60783607 163.71875 25.48046875 C167.32671675 26.05173015 170.92693008 26.39574663 174.5625 26.75 C196.63190299 29.16757823 221.26441303 33.94332019 240.8671875 44.859375 C243.16120562 46.12608777 243.16120562 46.12608777 246.328125 47.421875 C263.98734885 55.01158398 280.07322556 66.00004408 295 78 C295.95519531 78.76183594 296.91039062 79.52367187 297.89453125 80.30859375 C312.62706089 92.19764215 327.09649631 105.2400786 338.765625 120.2109375 C340.51491827 122.39449588 342.29638978 124.46761454 344.171875 126.5390625 C344.72262695 127.15442871 345.27337891 127.76979492 345.84082031 128.40380859 C346.91748057 129.60182285 348.00484517 130.79033489 349.10449219 131.96728516 C352.54118053 135.82877072 353.88338662 138.64226323 354 144 C352.625 146.4375 352.625 146.4375 350 148 C342.38529495 148.38073525 334.82860586 147.55472822 327.25341797 146.828125 C325.13695581 146.626141 323.01977219 146.43374331 320.90234375 146.2421875 C313.98020768 145.59898308 307.1593631 144.77178237 300.33007812 143.4375 C297.1312515 142.83688209 293.92513103 142.50949391 290.6875 142.1875 C265.68307899 139.44460849 240.74662723 134.47840488 216.25 128.8125 C215.57670654 128.65773193 214.90341309 128.50296387 214.2097168 128.34350586 C211.60416734 127.72178464 209.11533801 127.04691998 206.63183594 126.03662109 C203.96266835 124.9852959 201.34039578 124.23158377 198.5625 123.51953125 C197.51255859 123.2460083 196.46261719 122.97248535 195.38085938 122.69067383 C194.26517578 122.40087646 193.14949219 122.1110791 192 121.8125 C183.41758148 119.5426256 174.91853365 117.13335778 166.5 114.3125 C165.68402344 114.03962158 164.86804688 113.76674316 164.02734375 113.4855957 C158.26972679 111.51916083 152.63583956 109.28890624 147 107 C146.00871094 106.61457031 145.01742187 106.22914063 143.99609375 105.83203125 C134.97204656 102.23618954 126.52125156 97.63418776 118 93 C121.50030778 95.79495608 125.29290044 97.99856103 129.1875 100.1875 C129.88584961 100.58042236 130.58419922 100.97334473 131.30371094 101.37817383 C137.73973939 104.94665775 144.34184764 108.08423643 151.02734375 111.15234375 C154.50953596 112.75343761 157.91204921 114.48105624 161.3125 116.25 C166.04398913 118.64479191 170.78838825 120.37467907 175.84643555 121.94775391 C178.80670174 122.9355024 181.61610499 124.07267428 184.4765625 125.31640625 C191.3284297 128.20231981 198.3125224 130.56198944 205.375 132.875 C206.70179768 133.31192265 208.0285384 133.74901829 209.35522461 134.1862793 C212.00217661 135.05736615 214.65026946 135.92485682 217.29931641 136.78955078 C220.57114379 137.85972628 223.83874677 138.94171791 227.10546875 140.02734375 C237.67084809 143.50371231 248.25338092 146.41894285 259.10546875 148.859375 C262.52000324 149.63182881 265.88707195 150.50802888 269.2578125 151.453125 C275.67978201 153.22990555 282.16952933 154.62456682 288.6875 156 C290.55220947 156.39517822 290.55220947 156.39517822 292.45458984 156.79833984 C303.46958778 159.11993813 314.4565295 161.35627796 325.6015625 162.9609375 C326.77831543 163.13286621 327.95506836 163.30479492 329.16748047 163.48193359 C331.51646905 163.82161969 333.8670571 164.15046075 336.21923828 164.46728516 C337.2967334 164.62245605 338.37422852 164.77762695 339.484375 164.9375 C340.45084961 165.07027344 341.41732422 165.20304688 342.41308594 165.33984375 C345.27942894 166.07130765 346.85577159 166.97756082 349 169 C349.75 171.75 349.75 171.75 349 175 C343.64031319 181.65663726 335.26516557 185.76881554 328 190 C327.09628662 190.52907959 327.09628662 190.52907959 326.17431641 191.06884766 C315.84583276 197.09949951 305.94420374 202.26231813 294.5625 206 C293.50353516 206.34885254 292.44457031 206.69770508 291.35351562 207.05712891 C271.33698573 213.54037504 251.90126918 216.36697538 230.89233398 216.31567383 C228.20059563 216.31251537 225.50996301 216.33607672 222.81835938 216.36132812 C207.74752737 216.41686043 192.9060425 214.92143403 178.4375 210.5 C177.69483887 210.28279297 176.95217773 210.06558594 176.18701172 209.84179688 C174.75034342 209.42026512 173.3149992 208.99418054 171.88134766 208.5625 C170.28455467 208.08507837 168.68008417 207.63345462 167.07421875 207.1875 C161.54906917 205.63658082 156.33020591 203.57169349 151.05859375 201.30859375 C149.082231 200.46302348 147.09559039 199.64091408 145.09765625 198.84765625 C125.88221043 191.18727047 107.97860896 180.0852635 92 167 C91.16952148 166.32396729 91.16952148 166.32396729 90.32226562 165.63427734 C76.50621097 154.31125649 63.90110922 141.9862241 53.22460938 127.63916016 C52.04702456 126.06294315 50.84428881 124.50561185 49.640625 122.94921875 C36.82843489 106.27128163 26.58850264 88.15992676 18 69 C17.65936523 68.25089355 17.31873047 67.50178711 16.96777344 66.72998047 C12.04906251 55.84912558 8.30990131 44.94927219 5.2265625 33.4140625 C4.57565758 30.98005891 3.90053729 28.75902232 2.9375 26.42578125 C1.57239152 22.89356307 1.00904295 19.28588485 0.375 15.5625 C0.17390625 14.45551758 0.17390625 14.45551758 -0.03125 13.32617188 C-0.75390246 9.17829423 -1.24833377 5.22820911 -1 1 C-0.67 0.67 -0.34 0.34 0 0 Z " fill="#029345" transform="translate(91,303)"/>
<path d="M0 0 C9.54990177 2.2162324 16.69814977 10.06828082 23.58496094 16.65673828 C24.84349228 17.85143108 26.1271433 19.01953576 27.4140625 20.18359375 C32.18299848 24.6407795 35.93002648 29.48222338 39.5625 34.875 C40.00480957 35.53016602 40.44711914 36.18533203 40.90283203 36.86035156 C44 41.61402952 44 41.61402952 44 45 C44.66 45 45.32 45 46 45 C60.36732942 72.44159919 64.85610925 102.68605189 55.78686523 132.71582031 C54.44933141 136.59852787 52.76655925 140.29646255 51 144 C50.49339844 145.07765625 49.98679687 146.1553125 49.46484375 147.265625 C41.6552699 162.52525268 28.79811475 177.66071834 13 185 C10.67578125 184.68359375 10.67578125 184.68359375 9 184 C9.41340612 178.31566592 10.43975 172.96109142 11.8125 167.4375 C14.51175641 156.39915834 16.33726553 145.2359378 18 134 C18.12149414 133.20916016 18.24298828 132.41832031 18.36816406 131.60351562 C21.12754885 112.93854273 20.1830104 93.81346959 20 75 C19.9906543 75.61069336 19.98130859 76.22138672 19.97167969 76.85058594 C19.72819349 89.72670907 18.90651207 102.37198786 17.0625 115.125 C16.89266602 116.30288086 16.72283203 117.48076172 16.54785156 118.69433594 C15.6993791 124.2813251 14.62574591 129.58084698 13 135 C12.673459 136.60162212 12.36078372 138.20610538 12.05859375 139.8125 C11.05526668 144.98868882 9.62328746 149.96773816 8.0625 155 C7.81048828 155.825 7.55847656 156.65 7.29882812 157.5 C6.79202529 159.1590988 6.28285018 160.8174749 5.77124023 162.47509766 C4.72167285 165.91119322 3.7157938 169.35993512 2.71337891 172.81005859 C1.77044502 175.70469135 0.47023092 178.33958215 -1 181 C-2.75 180.9375 -2.75 180.9375 -5 180 C-6.55757678 177.6904896 -7.75208856 175.47940299 -9 173 C-9.7734375 171.64648438 -9.7734375 171.64648438 -10.5625 170.265625 C-24.99125161 143.85585643 -29.31535024 111.12276033 -21.46386719 82.01220703 C-20.16239589 77.60541173 -18.60484271 73.30369086 -17 69 C-16.50632821 67.65631693 -16.01284278 66.31256537 -15.51953125 64.96875 C-14.04065764 60.96849465 -12.52481114 56.98292949 -11 53 C-10.33097656 51.24429688 -10.33097656 51.24429688 -9.6484375 49.453125 C-7.4745599 43.77170256 -5.25929618 38.11671479 -2.89453125 32.51171875 C-0.21484044 24.98752141 0.26040139 18.43660454 0.125 10.5 C0.11597656 9.48679687 0.10695313 8.47359375 0.09765625 7.4296875 C0.07429007 4.95287199 0.04153168 2.47656621 0 0 Z " fill="#039346" transform="translate(470,263)"/>
<path d="M0 0 C3.07906863 0.21301733 3.87631336 0.96794842 6.046875 3.109375 C8.42583171 5.44752561 10.60850883 7.2449841 13.49371529 8.94423771 C18.3191599 11.8677058 21.84705188 14.09312825 23.57964706 19.74430656 C24.12908131 24.17255965 23.99401108 28.59164137 23.87841797 33.04272461 C23.87830706 34.7452263 23.88346382 36.44773519 23.89346313 38.15020752 C23.90540563 42.75237672 23.84330552 47.3508504 23.76696539 51.9522903 C23.69918174 56.77050462 23.69819792 61.58874651 23.68948364 66.40736389 C23.66560454 74.49040603 23.59808124 82.57207837 23.49951172 90.65454102 C23.36046009 102.06412931 23.30197425 113.47310758 23.25871062 124.88340366 C23.22215134 133.73876581 23.1632726 142.59400164 23.1015625 151.44921875 C23.09521963 152.40045018 23.08887675 153.35168161 23.08234167 154.33173823 C23.04477094 159.78896905 22.99611265 165.24588659 22.93011093 170.70285034 C22.91143264 172.35807934 22.89609895 174.01334982 22.88428497 175.66864204 C22.86743979 177.92071602 22.83828388 180.17228683 22.80563354 182.42417908 C22.78502019 184.31752188 22.78502019 184.31752188 22.7639904 186.24911404 C22.484375 189.171875 22.484375 189.171875 20.484375 191.171875 C16.17322023 190.89071273 12.19060367 189.84921454 8.01953125 188.75390625 C1.65714043 187.15267556 -4.72161236 186.04036253 -11.203125 185.046875 C-12.26595703 184.87800781 -13.32878906 184.70914063 -14.42382812 184.53515625 C-19.16272803 183.79260192 -23.88813265 183.10745736 -28.66015625 182.6171875 C-32.515625 182.171875 -32.515625 182.171875 -34.515625 181.171875 C-34.72638676 162.36059048 -34.88482732 143.54954737 -34.98193455 124.73732471 C-35.0282331 116.0013195 -35.09128994 107.26605022 -35.19458008 98.53051758 C-35.28462361 90.91161872 -35.34242816 83.2932531 -35.36242145 75.67383689 C-35.37409907 71.64354267 -35.40130324 67.61477318 -35.46719551 63.58497047 C-35.52887209 59.78171526 -35.5470154 55.98059346 -35.53359413 52.1768856 C-35.53720181 50.13587392 -35.58533159 48.095088 -35.63540649 46.0546875 C-35.52969357 35.40530392 -31.92207603 30.25685249 -25.515625 22.171875 C-24.69195608 20.75238163 -24.69195608 20.75238163 -23.85164738 19.30421162 C-23.41075999 18.60054053 -22.96987261 17.89686945 -22.515625 17.171875 C-21.855625 17.171875 -21.195625 17.171875 -20.515625 17.171875 C-20.26039063 16.46546875 -20.00515625 15.7590625 -19.7421875 15.03125 C-17.44592258 9.67817381 -13.93261409 2.67033443 -8.38671875 0.23828125 C-5.57985248 -0.10791668 -2.82285985 0.1928662 0 0 Z " fill="#689137" transform="translate(285.515625,133.828125)"/>
<path d="M0 0 C4.45244968 1.64478508 7.64102343 3.96316881 11.1875 7.0625 C14.85872943 10.36774605 14.85872943 10.36774605 19 13 C19.103125 14.0725 19.20625 15.145 19.3125 16.25 C19.78529976 20.00438858 19.78529976 20.00438858 21.6875 22.9375 C25.56604895 25.35244557 26.8594866 25.08637554 31.3125 24.8125 C40.00717677 24.49517603 45.62210244 27.71632617 52.97216797 31.87109375 C56.23946666 33.69001852 59.58704648 35.3408574 62.9375 37 C63.92121582 37.49294556 63.92121582 37.49294556 64.92480469 37.99584961 C70.48830192 40.77691942 76.11121489 43.42321861 81.74755859 46.05273438 C88.56344052 49.24119158 95.28904084 52.59666096 102 56 C100 57 100 57 96.68701172 56.05957031 C95.26520669 55.5735749 93.8462744 55.07912663 92.4296875 54.578125 C91.29710007 54.1871463 91.29710007 54.1871463 90.14163208 53.78826904 C87.71692205 52.9491927 85.29603299 52.09962015 82.875 51.25 C81.26585572 50.69204249 79.65648314 50.13474295 78.046875 49.578125 C75.05967222 48.54195931 72.07302767 47.50430085 69.08935547 46.45800781 C68.49138153 46.24847473 67.89340759 46.03894165 67.27731323 45.82305908 C63.83961624 44.58061791 60.42068847 43.28841089 57 42 C57.00092179 42.77213805 57.00184359 43.5442761 57.00279331 44.33981228 C57.02484721 63.100173 57.0414109 81.86053115 57.05181217 100.62090206 C57.05697543 109.69315493 57.06401869 118.76539916 57.07543945 127.83764648 C57.08538538 135.74208712 57.09185321 143.64652151 57.09408849 151.55096823 C57.09539576 155.73894719 57.09848259 159.92690827 57.10573006 164.11488152 C57.11248884 168.05215298 57.11461725 171.98939908 57.11310768 175.9266758 C57.11338407 177.37594617 57.11539004 178.82521735 57.11920547 180.27448273 C57.12414043 182.24470414 57.12239809 184.21493898 57.12025452 186.18516541 C57.12117631 187.29039519 57.1220981 188.39562498 57.12304783 189.53434658 C57 192 57 192 56 193 C51.20253342 193.69402771 48.33981746 191.63086941 44.5625 189 C43.31439595 188.16512739 42.06434122 187.33316469 40.8125 186.50390625 C39.86117187 185.87186279 39.86117187 185.87186279 38.890625 185.22705078 C31.23491384 180.25835188 23.0959051 176.00979404 15.0625 171.6875 C14.15866577 171.19914673 14.15866577 171.19914673 13.23657227 170.70092773 C10.24684141 169.10902537 7.24086046 167.64524092 4.12109375 166.33203125 C1 165 1 165 0 164 C-0.09688731 161.88639683 -0.12186842 159.7694933 -0.12025452 157.65367126 C-0.12110894 156.98311425 -0.12196337 156.31255724 -0.12284368 155.62168032 C-0.12450037 153.35835602 -0.11897407 151.09510466 -0.11352539 148.83178711 C-0.11324353 147.21589662 -0.11340122 145.60000601 -0.1139679 143.9841156 C-0.11425593 139.5834776 -0.10835829 135.18286661 -0.10139394 130.78223491 C-0.09516134 126.1884479 -0.09455668 121.59466034 -0.09336853 117.00086975 C-0.09025494 108.29565229 -0.08204117 99.59044732 -0.07201904 90.88523537 C-0.06085877 80.97730082 -0.05534767 71.06936569 -0.05032361 61.16142642 C-0.03985858 40.7742773 -0.0222586 20.38713943 0 0 Z " fill="#23B673" transform="translate(330,169)"/>
<path d="M0 0 C0.90234375 0.10699219 1.8046875 0.21398437 2.734375 0.32421875 C1.744375 0.81921875 1.744375 0.81921875 0.734375 1.32421875 C0.734375 61.71421875 0.734375 122.10421875 0.734375 184.32421875 C-25.265625 181.32421875 -25.265625 181.32421875 -27.265625 180.32421875 C-27.47638676 161.51293423 -27.63482732 142.70189112 -27.73193455 123.88966846 C-27.7782331 115.15366325 -27.84128994 106.41839397 -27.94458008 97.68286133 C-28.03462361 90.06396247 -28.09242816 82.44559685 -28.11242145 74.82618064 C-28.12409907 70.79588642 -28.15130324 66.76711693 -28.21719551 62.73731422 C-28.27887209 58.93405901 -28.2970154 55.13293721 -28.28359413 51.32922935 C-28.28720181 49.28821767 -28.33533159 47.24743175 -28.38540649 45.20703125 C-28.27969357 34.55764767 -24.67207603 29.40919624 -18.265625 21.32421875 C-17.44195608 19.90472538 -17.44195608 19.90472538 -16.60164738 18.45655537 C-16.16075999 17.75288428 -15.71987261 17.0492132 -15.265625 16.32421875 C-14.605625 16.32421875 -13.945625 16.32421875 -13.265625 16.32421875 C-13.01296875 15.61910156 -12.7603125 14.91398438 -12.5 14.1875 C-11.13088927 11.01168302 -9.48087934 8.35676719 -7.515625 5.51171875 C-6.86078125 4.53589844 -6.2059375 3.56007812 -5.53125 2.5546875 C-3.265625 0.32421875 -3.265625 0.32421875 0 0 Z " fill="#F8931F" transform="translate(278.265625,134.67578125)"/>
<path d="M0 0 C6.82974114 3.45096337 13.71558372 6.77426006 20.625 10.0625 C29.13341096 14.11302626 37.5977531 18.23334776 46 22.5 C44 23.5 44 23.5 40.68701172 22.55957031 C39.26520669 22.0735749 37.8462744 21.57912663 36.4296875 21.078125 C35.67462921 20.81747253 34.91957092 20.55682007 34.14163208 20.28826904 C31.71692205 19.4491927 29.29603299 18.59962015 26.875 17.75 C25.26585572 17.19204249 23.65648314 16.63474295 22.046875 16.078125 C19.05967222 15.04195931 16.07302767 14.00430085 13.08935547 12.95800781 C12.19239456 12.64370819 12.19239456 12.64370819 11.27731323 12.32305908 C7.83961624 11.08061791 4.42068847 9.78841089 1 8.5 C1.00092179 9.27213805 1.00184359 10.0442761 1.00279331 10.83981228 C1.02484721 29.600173 1.0414109 48.36053115 1.05181217 67.12090206 C1.05697543 76.19315493 1.06401869 85.26539916 1.07543945 94.33764648 C1.08538538 102.24208712 1.09185321 110.14652151 1.09408849 118.05096823 C1.09539576 122.23894719 1.09848259 126.42690827 1.10573006 130.61488152 C1.11248884 134.55215298 1.11461725 138.48939908 1.11310768 142.4266758 C1.11338407 143.87594617 1.11539004 145.32521735 1.11920547 146.77448273 C1.12414043 148.74470414 1.12239809 150.71493898 1.12025452 152.68516541 C1.12117631 153.79039519 1.1220981 154.89562498 1.12304783 156.03434658 C1 158.5 1 158.5 0 159.5 C-4.90119506 160.24369139 -7.94418764 157.98015584 -11.8125 155.3125 C-12.98526778 154.52673251 -14.15844851 153.74158104 -15.33203125 152.95703125 C-16.16554375 152.36700097 -16.16554375 152.36700097 -17.01589489 151.76505089 C-18.95040725 150.44600001 -18.95040725 150.44600001 -21.07459736 149.66544533 C-23.58664183 148.54828812 -25.14658776 147.54817422 -27 145.5 C-28.21670168 140.80803432 -28.04283019 136.11502943 -27.95581055 131.30224609 C-27.95846637 129.83840443 -27.96460254 128.37456555 -27.97395325 126.91075134 C-27.98905322 122.94125984 -27.95438216 118.9736044 -27.9099462 115.00439024 C-27.87106239 110.85116202 -27.87519893 106.69796481 -27.87397766 102.54458618 C-27.86565981 95.57205025 -27.82706542 88.60021428 -27.76831055 81.62792969 C-27.70051624 73.56335049 -27.67067478 65.4993694 -27.6633355 57.43452203 C-27.6554656 48.85085885 -27.62466506 40.26740649 -27.58454156 31.68383837 C-27.5742096 29.20874514 -27.56765043 26.73366366 -27.56171227 24.25855637 C-27.55092642 20.37273133 -27.524431 16.48731476 -27.48567009 12.60167122 C-27.47369675 11.17423537 -27.46679556 9.74674682 -27.46528244 8.31926155 C-27.46228276 6.37401468 -27.4389922 4.42883033 -27.41459656 2.48373413 C-27.4031588 0.84945748 -27.4031588 0.84945748 -27.39148998 -0.81783485 C-27 -3.5 -27 -3.5 -25.58736897 -5.32710838 C-17.88293911 -11.01983729 -7.20329991 -3.67332458 0 0 Z " fill="#0F9F5B" transform="translate(386,202.5)"/>
<path d="M0 0 C2.375 0.3125 2.375 0.3125 3.375 1.3125 C3.47565628 4.38168188 3.51114443 7.42840276 3.50439453 10.49804688 C3.50702301 11.9442617 3.50702301 11.9442617 3.50970459 13.41969299 C3.51412493 16.62356336 3.51118447 19.82737902 3.5078125 23.03125 C3.50848549 25.24702973 3.50945547 27.46280939 3.51071167 29.67858887 C3.51218889 34.32919007 3.51003331 38.97977211 3.50537109 43.63037109 C3.4996738 49.60632604 3.50295267 55.58223609 3.50894356 61.55818939 C3.51254852 66.13564394 3.51141088 70.71308775 3.50881577 75.2905426 C3.50814632 77.49467474 3.50897554 79.69880783 3.51129532 81.90293884 C3.51382078 84.97763672 3.50998275 88.05226078 3.50439453 91.12695312 C3.50641876 92.04750992 3.50844299 92.96806671 3.51052856 93.91651917 C3.48926228 100.19823772 3.48926228 100.19823772 2.375 101.3125 C0.66727578 101.41653846 -1.04473806 101.45103224 -2.75561523 101.45776367 C-4.3975309 101.46733345 -4.3975309 101.46733345 -6.07261658 101.47709656 C-7.26423904 101.47820938 -8.45586151 101.4793222 -9.68359375 101.48046875 C-10.89821793 101.48379715 -12.1128421 101.48712555 -13.36427307 101.49055481 C-15.93921529 101.49562923 -18.51416411 101.49796298 -21.08911133 101.49780273 C-25.04193897 101.49998863 -28.99448745 101.51813762 -32.94726562 101.53710938 C-35.44270737 101.54004322 -37.93815045 101.54202808 -40.43359375 101.54296875 C-41.62319199 101.55015427 -42.81279022 101.55733978 -44.03843689 101.56474304 C-45.13619949 101.56166641 -46.2339621 101.55858978 -47.36499023 101.55541992 C-48.3346019 101.55684494 -49.30421356 101.55826996 -50.3032074 101.55973816 C-52.625 101.3125 -52.625 101.3125 -54.625 99.3125 C-54.9034729 97.28768921 -54.9034729 97.28768921 -54.94384766 94.77099609 C-54.96371735 93.83017181 -54.98358704 92.88934753 -55.00405884 91.92001343 C-55.01561005 90.90226837 -55.02716125 89.88452332 -55.0390625 88.8359375 C-55.05842865 87.79555328 -55.0777948 86.75516907 -55.0977478 85.68325806 C-55.15765727 82.3514228 -55.20397452 79.01955321 -55.25 75.6875 C-55.2881693 73.43227637 -55.3272204 71.17706748 -55.3671875 68.921875 C-55.46336799 63.38554725 -55.54838196 57.84913115 -55.625 52.3125 C-56.57874512 52.63065674 -57.53249023 52.94881348 -58.51513672 53.27661133 C-64.51115781 55.27630799 -70.50734914 57.27538045 -76.5078125 59.26171875 C-77.384375 59.55240234 -78.2609375 59.84308594 -79.1640625 60.14257812 C-80.92671528 60.72702266 -82.68975258 61.31030847 -84.453125 61.89257812 C-85.31679687 62.17939453 -86.18046875 62.46621094 -87.0703125 62.76171875 C-87.87243164 63.02774902 -88.67455078 63.2937793 -89.50097656 63.56787109 C-91.77517649 64.3335212 -91.77517649 64.3335212 -94.4921875 65.58203125 C-96.96658335 66.42948917 -98.20322902 66.20945222 -100.625 65.3125 C-99.1055201 64.53900218 -97.58433433 63.7688552 -96.0625 63 C-95.21558594 62.57074219 -94.36867187 62.14148438 -93.49609375 61.69921875 C-90.91415948 60.45216206 -88.30670076 59.30724971 -85.66674805 58.18969727 C-81.353529 56.33660674 -77.08689198 54.37802151 -72.8125 52.4375 C-71.41161133 51.80521484 -71.41161133 51.80521484 -69.98242188 51.16015625 C-62.31021799 47.67811507 -54.76606028 43.98970178 -47.32421875 40.0390625 C-46.65712891 39.68972656 -45.99003906 39.34039062 -45.30273438 38.98046875 C-43.95091259 38.27205576 -42.60468248 37.55288991 -41.26367188 36.82421875 C-38.2344344 35.25788133 -36.15190641 34.27441038 -32.70703125 34.5234375 C-30.625 35.3125 -30.625 35.3125 -29.625 36.3125 C-24.63948365 36.69600126 -21.63720165 36.3806542 -17.625 33.3125 C-16.40612687 31.33773046 -16.40612687 31.33773046 -16.9140625 29.01953125 C-17.91826026 20.36708314 -14.93069584 15.91561667 -9.80126953 9.38989258 C-8.84205987 8.2031679 -7.87329283 7.02408214 -6.89355469 5.85424805 C-5.84651182 4.58171615 -4.87817383 3.24486628 -3.93359375 1.89453125 C-2.625 0.3125 -2.625 0.3125 0 0 Z " fill="#159D88" transform="translate(222.625,211.6875)"/>
<path d="M0 0 C0 21.12 0 42.24 0 64 C-8.91 64 -17.82 64 -27 64 C-29.45496426 61.54503574 -29.26466611 60.83581235 -29.31884766 57.45849609 C-29.33871735 56.51767181 -29.35858704 55.57684753 -29.37905884 54.60751343 C-29.39061005 53.58976837 -29.40216125 52.57202332 -29.4140625 51.5234375 C-29.43342865 50.48305328 -29.4527948 49.44266907 -29.4727478 48.37075806 C-29.53265727 45.0389228 -29.57897452 41.70705321 -29.625 38.375 C-29.6631693 36.11977637 -29.7022204 33.86456748 -29.7421875 31.609375 C-29.83836799 26.07304725 -29.92338196 20.53663115 -30 15 C-30.95374512 15.31815674 -31.90749023 15.63631348 -32.89013672 15.96411133 C-38.88615781 17.96380799 -44.88234914 19.96288045 -50.8828125 21.94921875 C-52.19765625 22.38524414 -52.19765625 22.38524414 -53.5390625 22.83007812 C-55.30171528 23.41452266 -57.06475258 23.99780847 -58.828125 24.58007812 C-59.69179687 24.86689453 -60.55546875 25.15371094 -61.4453125 25.44921875 C-62.24743164 25.71524902 -63.04955078 25.9812793 -63.87597656 26.25537109 C-66.15017649 27.0210212 -66.15017649 27.0210212 -68.8671875 28.26953125 C-71.34158335 29.11698917 -72.57822902 28.89695222 -75 28 C-73.4805201 27.22650218 -71.95933433 26.4563552 -70.4375 25.6875 C-69.59058594 25.25824219 -68.74367187 24.82898438 -67.87109375 24.38671875 C-65.28915948 23.13966206 -62.68170076 21.99474971 -60.04174805 20.87719727 C-55.728529 19.02410674 -51.46189198 17.06552151 -47.1875 15.125 C-45.78661133 14.49271484 -45.78661133 14.49271484 -44.35742188 13.84765625 C-36.68521799 10.36561507 -29.14106028 6.67720178 -21.69921875 2.7265625 C-21.03212891 2.37722656 -20.36503906 2.02789062 -19.67773438 1.66796875 C-18.32591259 0.95955576 -16.97968248 0.24038991 -15.63867188 -0.48828125 C-9.09722598 -3.87068742 -6.63606373 -2.65442549 0 0 Z " fill="#2BABE1" transform="translate(197,249)"/>
<path d="M0 0 C7.65380144 -0.02528903 15.30759217 -0.04284104 22.96142578 -0.05493164 C25.56689863 -0.0599703 28.17236863 -0.0668013 30.77783203 -0.07543945 C34.51595764 -0.08752544 38.25404597 -0.09323288 41.9921875 -0.09765625 C43.16304901 -0.10281754 44.33391052 -0.10797882 45.54025269 -0.11329651 C47.161707 -0.11340981 47.161707 -0.11340981 48.81591797 -0.11352539 C49.77078094 -0.115746 50.72564392 -0.11796661 51.70944214 -0.12025452 C54 0 54 0 56 1 C56 14.86 56 28.72 56 43 C51.94920118 40.56952071 48.10411104 38.04969468 44.3125 35.25 C43.73177734 34.84523437 43.15105469 34.44046875 42.55273438 34.0234375 C38.25174562 30.82131408 37.08642662 28.16507852 36 23 C34.6469872 20.39685006 34.6469872 20.39685006 32 19 C28.52555684 18.33406506 25.46585114 18.25608187 22 19 C18.63547398 22.2004028 17.92058139 24.72284723 17.76953125 29.18359375 C17.20964018 34.77737825 14.60947065 38.25768816 11.25 42.625 C10.7240625 43.3365625 10.198125 44.048125 9.65625 44.78125 C8.61789676 46.18456899 7.57184908 47.58223266 6.51757812 48.97363281 C5.02736015 50.96346698 3.59582819 52.98585269 2.171875 55.0234375 C1.45515625 56.00570312 0.7384375 56.98796875 0 58 C-0.33 58 -0.66 58 -1 58 C-1.02314782 50.73305527 -1.04092756 43.46611846 -1.05181217 36.19914436 C-1.05703565 32.82496974 -1.06412361 29.45082029 -1.07543945 26.07666016 C-1.08752436 22.19953741 -1.09323263 18.3224506 -1.09765625 14.4453125 C-1.10281754 13.23070343 -1.10797882 12.01609436 -1.11329651 10.76467896 C-1.11340981 9.08316238 -1.11340981 9.08316238 -1.11352539 7.36767578 C-1.115746 6.37728302 -1.11796661 5.38689026 -1.12025452 4.3664856 C-1 2 -1 2 0 0 Z " fill="#F79423" transform="translate(252,97)"/>
<path d="M0 0 C7.36894815 -0.05058145 14.73785178 -0.08568333 22.10693359 -0.10986328 C24.61541415 -0.11994011 27.12388292 -0.13360179 29.63232422 -0.15087891 C33.23147488 -0.17505337 36.83047067 -0.18646612 40.4296875 -0.1953125 C41.55680145 -0.20563507 42.68391541 -0.21595764 43.84518433 -0.22659302 C44.88611237 -0.22674408 45.92704041 -0.22689514 46.99951172 -0.22705078 C47.91884491 -0.231492 48.8381781 -0.23593323 49.78536987 -0.24050903 C52 0 52 0 54 2 C54.17495606 4.50920846 54.23169569 6.90624941 54.1953125 9.4140625 C54.1924826 10.14370209 54.18965271 10.87334167 54.18673706 11.62509155 C54.17553002 13.95856028 54.1504251 16.29164703 54.125 18.625 C54.11497085 20.20572363 54.10584489 21.78645327 54.09765625 23.3671875 C54.07558905 27.24493914 54.04105615 31.12240478 54 35 C47.68417967 32.92497474 41.56670657 30.70270331 36 27 C34.5 23.375 34.5 23.375 34 20 C32.71107713 17.37716666 32.71107713 17.37716666 30 16 C28.35151466 16.08299666 26.7053019 16.21501784 25.0625 16.375 C17.53156933 16.70813768 12.86220683 12.04686238 7.53662109 7.34619141 C5.9255495 5.93477597 4.27411524 4.58278567 2.61328125 3.23046875 C1.75089844 2.49441406 0.88851563 1.75835937 0 1 C0 0.67 0 0.34 0 0 Z " fill="#2FB77A" transform="translate(334,160)"/>
<path d="M0 0 C1.72447904 0.00031742 3.44897767 0.01165954 5.17333984 0.03173828 C6.53415176 0.03598312 6.53415176 0.03598312 7.92245483 0.04031372 C10.82652857 0.05152926 13.73029646 0.07663615 16.63427734 0.10205078 C18.60041873 0.11207881 20.56656494 0.12120497 22.53271484 0.12939453 C27.35835393 0.15147306 32.18376374 0.18601213 37.00927734 0.22705078 C33.9214619 6.56591421 29.76650471 14.27438955 23.33349609 17.61767578 C20.69677734 18.47705078 20.69677734 18.47705078 18.27099609 18.99267578 C15.5668198 20.4685302 15.39659581 21.29065802 14.22412109 24.05517578 C11.96177076 29.05657593 8.7689219 30.59493402 3.88427734 32.72705078 C3.15595703 33.07251953 2.42763672 33.41798828 1.67724609 33.77392578 C-3.58918496 36.22705078 -3.58918496 36.22705078 -5.99072266 36.22705078 C-6.04009149 31.42156481 -6.07642708 26.61622584 -6.10058594 21.81054688 C-6.1106552 20.17510406 -6.12431146 18.53967929 -6.14160156 16.90429688 C-6.1658097 14.55610708 -6.17719623 12.20815491 -6.18603516 9.85986328 C-6.20151901 8.75978439 -6.20151901 8.75978439 -6.21731567 7.63748169 C-6.21771634 5.83242381 -6.1128502 4.02797248 -5.99072266 2.22705078 C-3.99072266 0.22705078 -3.99072266 0.22705078 0 0 Z " fill="#33ADE1" transform="translate(173.99072265625,210.77294921875)"/>
<path d="M0 0 C0.33 0 0.66 0 1 0 C1 2.31 1 4.62 1 7 C1.66 7 2.32 7 3 7 C3 64.09 3 121.18 3 180 C3.66 180 4.32 180 5 180 C5 180.66 5 181.32 5 182 C3.35 182.33 1.7 182.66 0 183 C0 122.61 0 62.22 0 0 Z " fill="#7C912F" transform="translate(279,136)"/>
<path d="M0 0 C0 13.86 0 27.72 0 42 C-4.05079882 39.56952071 -7.89588896 37.04969468 -11.6875 34.25 C-12.26822266 33.84523437 -12.84894531 33.44046875 -13.44726562 33.0234375 C-17.74532136 29.82349774 -18.9868832 27.19000187 -20 22 C-20.26425781 21.27296875 -20.52851563 20.5459375 -20.80078125 19.796875 C-21 18 -21 18 -19.85546875 16.078125 C-19.30503906 15.47484375 -18.75460937 14.8715625 -18.1875 14.25 C-17.64480469 13.63640625 -17.10210937 13.0228125 -16.54296875 12.390625 C-15 11 -15 11 -13 11 C-13 10.34 -13 9.68 -13 9 C-11.35546875 7.59765625 -11.35546875 7.59765625 -9.1875 6.0625 C-7.08132929 4.56247678 -5.16296959 3.16841488 -3.36328125 1.30859375 C-2 0 -2 0 0 0 Z " fill="#699238" transform="translate(308,98)"/>
<path d="M0 0 C1.65 0.33 3.3 0.66 5 1 C5 11.23 5 21.46 5 32 C-1.34398311 30.73120338 -6.73682453 28.83128214 -12 25 C-14.12379808 21.61660891 -14.67059451 18.93898759 -14 15 C-12.13327458 11.7761288 -9.9400877 9.28815521 -7 7 C-6.34 7 -5.68 7 -5 7 C-5 6.34 -5 5.68 -5 5 C-4.360625 4.731875 -3.72125 4.46375 -3.0625 4.1875 C-0.66868314 3.11332248 -0.66868314 3.11332248 0 0 Z " fill="#12A05D" transform="translate(382,162)"/>
<path d="M0 0 C0.99 0.33 1.98 0.66 3 1 C2.67 55.12 2.34 109.24 2 165 C1.34 164.67 0.68 164.34 0 164 C0 109.88 0 55.76 0 0 Z " fill="#43BB8B" transform="translate(330,169)"/>
<path d="M0 0 C5.2627046 0.87711743 8.33121544 1.8523591 13 4 C13 4.33 13 4.66 13 5 C9.95613276 5.08226668 7.92824652 4.97608217 5 4 C4.01 4 3.02 4 2 4 C2.00138269 5.1181714 2.00138269 5.1181714 2.00279331 6.25893211 C2.0248544 24.37706303 2.04141442 42.49519128 2.05181217 60.61333275 C2.05697378 69.37503923 2.06401392 78.13673676 2.07543945 86.8984375 C2.08539041 94.53297323 2.09185441 102.16750248 2.09408849 109.80204451 C2.0953949 113.84641486 2.09847635 117.89076666 2.10573006 121.93513107 C2.11249674 125.73861943 2.11461563 129.54208153 2.11310768 133.34557533 C2.11338372 134.74443644 2.11538501 136.14329839 2.11920547 137.54215431 C2.12415274 139.44633989 2.12239519 141.35053942 2.12025452 143.25473022 C2.12117631 144.3221665 2.1220981 145.38960278 2.12304783 146.4893856 C2 149 2 149 1 151 C0.34 150.67 -0.32 150.34 -1 150 C-0.67 100.5 -0.34 51 0 0 Z " fill="#ABE6CA" transform="translate(387,211)"/>
<path d="M0 0 C3.125 -0.1875 3.125 -0.1875 6 0 C5.01 0.495 5.01 0.495 4 1 C4 61.39 4 121.78 4 184 C-8.87 182.515 -8.87 182.515 -22 181 C-22 180.67 -22 180.34 -22 180 C-19.12474331 179.94574987 -16.25052354 179.90620723 -13.375 179.875 C-12.56675781 179.85824219 -11.75851562 179.84148437 -10.92578125 179.82421875 C-10.13300781 179.81777344 -9.34023438 179.81132812 -8.5234375 179.8046875 C-7.4394165 179.78897705 -7.4394165 179.78897705 -6.33349609 179.77294922 C-4 180 -4 180 2 182 C2.33 122.6 2.66 63.2 3 2 C1.35 3.32 -0.3 4.64 -2 6 C-2 3 -2 3 0 0 Z " fill="#E49927" transform="translate(275,135)"/>
<path d="M0 0 C1.50626953 0.77923828 1.50626953 0.77923828 3.04296875 1.57421875 C10.65192387 5.46797696 18.16780308 9.02757568 26.23046875 11.89453125 C29 13 29 13 31.24609375 14.4140625 C35.25103045 16.72045158 39.51062619 18.0768237 43.875 19.5625 C45.18404297 20.01786133 45.18404297 20.01786133 46.51953125 20.48242188 C51.31214756 22.13641502 56.11007525 23.66093341 61 25 C59.68 25.33 58.36 25.66 57 26 C57.99 27.65 58.98 29.3 60 31 C53.48765717 29.35750645 47.73744408 27.022936 41.7890625 23.92578125 C38.77576608 22.36865906 35.72121193 20.91652919 32.6484375 19.48046875 C23.61799724 15.25691595 14.63390346 11.04528348 6.0625 5.9375 C5.43625732 5.56778076 4.81001465 5.19806152 4.16479492 4.81713867 C2.73681458 3.93966525 1.36093292 2.97823772 0 2 C0 1.34 0 0.68 0 0 Z " fill="#E1F8EE" transform="translate(208,395)"/>
<path d="M0 0 C2.47087852 3.7816307 2.30539595 7.61314668 2.30078125 11.97265625 C2.30884041 13.15455032 2.30884041 13.15455032 2.31706238 14.36032104 C2.32845607 16.92787677 2.32203408 19.49494187 2.3125 22.0625 C2.31233887 22.93238556 2.31217773 23.80227112 2.31201172 24.69851685 C2.29230247 39.97582749 1.239962 54.87429917 -1 70 C-1.33 70 -1.66 70 -2 70 C-2 67.36 -2 64.72 -2 62 C-3.98 62.495 -3.98 62.495 -6 63 C-5.88406494 62.28980713 -5.76812988 61.57961426 -5.64868164 60.84790039 C-5.11762835 57.58647417 -4.5900416 54.324496 -4.0625 51.0625 C-3.88009766 49.94552734 -3.69769531 48.82855469 -3.50976562 47.67773438 C-1.68555004 36.36759772 -0.78203697 25.3975904 -0.4375 13.9375 C-0.39420372 12.58136984 -0.35058634 11.22524989 -0.30664062 9.86914062 C-0.2012789 6.57951329 -0.09915048 3.28981941 0 0 Z " fill="#CDF1DF" transform="translate(489,334)"/>
<path d="M0 0 C0.66 0.33 1.32 0.66 2 1 C1.39453125 4.34375 1.39453125 4.34375 0 8 C-2.73828125 9.53125 -2.73828125 9.53125 -6.3125 10.5 C-7.66066602 10.89016996 -9.00829133 11.28221142 -10.35546875 11.67578125 C-11.09200684 11.88154785 -11.82854492 12.08731445 -12.58740234 12.29931641 C-17.14461199 13.62285331 -21.62826341 15.17359999 -26.125 16.6875 C-27.02516846 16.98527344 -27.92533691 17.28304688 -28.8527832 17.58984375 C-33.92131831 19.26748093 -33.92131831 19.26748093 -38.8671875 21.26953125 C-41.34158335 22.11698917 -42.57822902 21.89695222 -45 21 C-43.4805201 20.22650218 -41.95933433 19.4563552 -40.4375 18.6875 C-39.59058594 18.25824219 -38.74367187 17.82898438 -37.87109375 17.38671875 C-35.29495459 16.14246106 -32.69340921 15.0008339 -30.05932617 13.88598633 C-25.65559253 11.99136281 -21.30112308 9.98479177 -16.9375 8 C-15.97005859 7.56171875 -15.00261719 7.1234375 -14.00585938 6.671875 C-8.16356094 4.0211213 -8.16356094 4.0211213 -2.44140625 1.125 C-1.63574219 0.75375 -0.83007812 0.3825 0 0 Z " fill="#65BBAF" transform="translate(167,256)"/>
<path d="M0 0 C4.75007819 1.17895159 9.21135389 3.2873738 13.6875 5.25 C14.38359375 5.55429932 15.0796875 5.85859863 15.796875 6.17211914 C21.71201427 8.79675794 27.39718926 11.75939125 33 15 C30.26115191 16.36942404 28.73290654 15.43894101 25.94580078 14.51312256 C25.26243652 14.27676086 24.57907227 14.04039917 23.875 13.796875 C22.82094971 13.43919037 22.82094971 13.43919037 21.74560547 13.07427979 C20.25813047 12.56685195 18.77199329 12.05548817 17.28710938 11.54052734 C15.01340422 10.7546331 12.7338234 9.98798136 10.453125 9.22265625 C9.01001907 8.72772027 7.56729705 8.23166321 6.125 7.734375 C5.44163574 7.50611023 4.75827148 7.27784546 4.05419922 7.04266357 C0.47483492 5.78249539 -0.82902314 5.25646528 -3 2 C-2.01 1.34 -1.02 0.68 0 0 Z " fill="#1FA065" transform="translate(399,210)"/>
<path d="M0 0 C0.64066406 0.19335938 1.28132812 0.38671875 1.94140625 0.5859375 C6.95110985 2.0940748 11.96539857 3.57717786 17 5 C15.68 5.33 14.36 5.66 13 6 C13.99 7.65 14.98 9.3 16 11 C4.65160075 8.03954802 4.65160075 8.03954802 0 4 C0 2.68 0 1.36 0 0 Z " fill="#DCF5E5" transform="translate(252,415)"/>
<path d="M0 0 C17.82 0 35.64 0 54 0 C51.9957983 4.0084034 50.50944037 5.41409657 47 8 C47.309375 7.401875 47.61875 6.80375 47.9375 6.1875 C49.10209704 3.91043228 49.10209704 3.91043228 50 1 C33.5 1 17 1 0 1 C0 0.67 0 0.34 0 0 Z " fill="#E39732" transform="translate(252,97)"/>
<path d="M0 0 C-0.8125 3.4375 -0.8125 3.4375 -2 7 C-5.47325181 8.1577506 -8.36067448 8.06866652 -12 8 C-7.92654664 1.51714231 -7.92654664 1.51714231 -4.3125 -0.5 C-2 -1 -2 -1 0 0 Z " fill="#59B9AC" transform="translate(169,257)"/>
<path d="M0 0 C0.33 0 0.66 0 1 0 C1 13.86 1 27.72 1 42 C-4 39 -4 39 -5 37 C-3.68 37 -2.36 37 -1 37 C-0.67 24.79 -0.34 12.58 0 0 Z " fill="#849C5E" transform="translate(307,98)"/>
<path d="M0 0 C3.0831351 1.19899698 6.06279492 2.47700477 9 4 C9 4.66 9 5.32 9 6 C7 8 7 8 5 9 C2.96855359 8.06553465 0.96466413 7.06775224 -1 6 C-1.042721 4.33388095 -1.04063832 2.66617115 -1 1 C-0.67 0.67 -0.34 0.34 0 0 Z " fill="#22A062" transform="translate(390,205)"/>
<path d="M0 0 C0.515625 0.391875 1.03125 0.78375 1.5625 1.1875 C-1.67868159 3.34828773 -4.71959585 4.53634727 -8.375 5.875 C-9.60089844 6.33261719 -10.82679688 6.79023438 -12.08984375 7.26171875 C-15.21371693 8.12561367 -16.50999999 8.39812031 -19.4375 7.1875 C-16.11586396 5.49660681 -12.77997256 3.83677843 -9.4375 2.1875 C-8.75042969 1.83429688 -8.06335938 1.48109375 -7.35546875 1.1171875 C-2.987 -0.99566667 -2.987 -0.99566667 0 0 Z " fill="#8DC6BD" transform="translate(141.4375,269.8125)"/>
<path d="M0 0 C7.875 1.125 7.875 1.125 12 3 C12 3.33 12 3.66 12 4 C8.95613276 4.08226668 6.92824652 3.97608217 4 3 C3.01 3 2.02 3 1 3 C1 9.27 1 15.54 1 22 C0.67 22 0.34 22 0 22 C0 14.74 0 7.48 0 0 Z " fill="#DAF8E9" transform="translate(388,212)"/>
<path d="M0 0 C0.33 0 0.66 0 1 0 C1 2.31 1 4.62 1 7 C1.66 7 2.32 7 3 7 C3 4.69 3 2.38 3 0 C3.33 0 3.66 0 4 0 C4.09945415 6.11090483 4.0712828 11.97403427 3 18 C2.67 18 2.34 18 2 18 C2 15.36 2 12.72 2 10 C0.68 10.33 -0.64 10.66 -2 11 C-1.34 7.37 -0.68 3.74 0 0 Z " fill="#D4F1E2" transform="translate(485,386)"/>
<path d="M0 0 C0 3 0 3 -2.375 5.6875 C-5 8 -5 8 -7 8 C-7.2475 8.598125 -7.495 9.19625 -7.75 9.8125 C-9.16370012 12.28647521 -10.65055383 13.43370255 -13 15 C-13.66 14.67 -14.32 14.34 -15 14 C-14.04882866 12.8274869 -13.08882991 11.66212985 -12.125 10.5 C-11.59132813 9.8503125 -11.05765625 9.200625 -10.5078125 8.53125 C-10.01023437 8.0259375 -9.51265625 7.520625 -9 7 C-8.34 7 -7.68 7 -7 7 C-7 6.34 -7 5.68 -7 5 C-5.46875 3.7109375 -5.46875 3.7109375 -3.5 2.375 C-2.8503125 1.92898437 -2.200625 1.48296875 -1.53125 1.0234375 C-0.77328125 0.51683594 -0.77328125 0.51683594 0 0 Z " fill="#858D2A" transform="translate(302,102)"/>
<path d="M0 0 C0.33 0 0.66 0 1 0 C1.28545428 8.13544686 0.18396883 15.97649696 -1 24 C-1.33 24 -1.66 24 -2 24 C-2.05819424 20.75007554 -2.09366116 17.50028565 -2.125 14.25 C-2.14175781 13.32960938 -2.15851563 12.40921875 -2.17578125 11.4609375 C-2.18222656 10.57148438 -2.18867188 9.68203125 -2.1953125 8.765625 C-2.20578613 7.94868164 -2.21625977 7.13173828 -2.22705078 6.29003906 C-1.97829916 3.78112482 -1.25700129 2.16604375 0 0 Z " fill="#2B9E64" transform="translate(488,354)"/>
<path d="M0 0 C2.85475306 -0.08156437 5.70713565 -0.14076372 8.5625 -0.1875 C9.36236328 -0.21263672 10.16222656 -0.23777344 10.98632812 -0.26367188 C16.44794805 -0.33054885 20.12924103 0.5090481 25 3 C22.31663685 4.34168157 20.73643239 3.84841104 17.7734375 3.44140625 C16.2265625 3.23354492 16.2265625 3.23354492 14.6484375 3.02148438 C13.56820313 2.87001953 12.48796875 2.71855469 11.375 2.5625 C9.74304688 2.34110352 9.74304688 2.34110352 8.078125 2.11523438 C5.38461142 1.74901104 2.69201803 1.37703422 0 1 C0 0.67 0 0.34 0 0 Z " fill="#ECA242" transform="translate(253,315)"/>
<path d="M0 0 C2.6274838 1.28680869 5.25196683 2.57917678 7.875 3.875 C8.62136719 4.23980469 9.36773437 4.60460937 10.13671875 4.98046875 C10.85214844 5.33496094 11.56757813 5.68945312 12.3046875 6.0546875 C12.96452637 6.37937012 13.62436523 6.70405273 14.30419922 7.03857422 C16 8 16 8 18 10 C15 11 15 11 13.2824707 10.3190918 C12.66976318 9.94953369 12.05705566 9.57997559 11.42578125 9.19921875 C10.42514648 8.59883789 10.42514648 8.59883789 9.40429688 7.98632812 C8.71400391 7.55771484 8.02371094 7.12910156 7.3125 6.6875 C6.61060547 6.27048828 5.90871094 5.85347656 5.18554688 5.42382812 C3.41674482 4.34604495 1.70285459 3.17922157 0 2 C0 1.34 0 0.68 0 0 Z " fill="#8EDEB2" transform="translate(208,395)"/>
<path d="M0 0 C0.99 0.33 1.98 0.66 3 1 C5.39490986 1.06970052 7.79167691 1.08448003 10.1875 1.0625 C11.45980469 1.05347656 12.73210937 1.04445312 14.04296875 1.03515625 C15.01878906 1.02355469 15.99460937 1.01195312 17 1 C14.32196842 2.78535439 11.97778133 3.85469949 9 5 C8.01 5.495 8.01 5.495 7 6 C7 5.01 7 4.02 7 3 C4.69 3 2.38 3 0 3 C0 2.01 0 1.02 0 0 Z " fill="#41B182" transform="translate(352,193)"/>
<path d="M0 0 C1.4391134 0.28359887 2.87625518 0.57721399 4.3125 0.875 C5.11300781 1.03742188 5.91351563 1.19984375 6.73828125 1.3671875 C9 2 9 2 12 4 C10.265625 5.1171875 10.265625 5.1171875 8 6 C5.859375 5.3203125 5.859375 5.3203125 3.75 4.125 C3.04359375 3.73570312 2.3371875 3.34640625 1.609375 2.9453125 C1.07828125 2.63335937 0.5471875 2.32140625 0 2 C0 1.34 0 0.68 0 0 Z " fill="#BCEBD5" transform="translate(225,405)"/>
<path d="M0 0 C0.33 0.66 0.66 1.32 1 2 C-6.425 3.485 -6.425 3.485 -14 5 C-11.61307677 0.22615355 -4.81799099 -2.04399618 0 0 Z " fill="#4EB5D8" transform="translate(192,247)"/>
<path d="M0 0 C1.67542976 0.28604898 3.34385343 0.61781233 5 1 C4.01 1.33 3.02 1.66 2 2 C1.67 5.63 1.34 9.26 1 13 C0.67 13 0.34 13 0 13 C-0.19397476 11.02145742 -0.38001321 9.0421352 -0.5625 7.0625 C-0.66691406 5.96035156 -0.77132812 4.85820312 -0.87890625 3.72265625 C-0.91886719 2.82417969 -0.95882812 1.92570312 -1 1 C-0.67 0.67 -0.34 0.34 0 0 Z " fill="#2E9E6A" transform="translate(91,303)"/>
<path d="M0 0 C1.0625 1.8125 1.0625 1.8125 2 4 C1.67 4.99 1.34 5.98 1 7 C-1.5625 8.1875 -1.5625 8.1875 -4 9 C-4 5.00095031 -2.27413033 3.19799578 0 0 Z " fill="#F4A040" transform="translate(257,160)"/>
<path d="M0 0 C4.19469571 0.59924224 8.00999834 1.57499941 12 3 C12 3.33 12 3.66 12 4 C5.6812749 5.21513944 5.6812749 5.21513944 2.625 4.25 C1 3 1 3 0 0 Z " fill="#DBF4E6" transform="translate(234,409)"/>
<path d="M0 0 C0.75667969 0.0825 1.51335937 0.165 2.29296875 0.25 C-0.70703125 3.25 -3.70703125 6.25 -6.70703125 9.25 C-7.36703125 8.92 -8.02703125 8.59 -8.70703125 8.25 C-7.83202308 6.90290838 -6.93112192 5.57261014 -6.01953125 4.25 C-5.52066406 3.5075 -5.02179688 2.765 -4.5078125 2 C-2.70703125 0.25 -2.70703125 0.25 0 0 Z " fill="#49B2D0" transform="translate(222.70703125,211.75)"/>
<path d="M0 0 C4.49797113 1.68673918 8.72886302 3.81673892 13 6 C11 7 11 7 8.1796875 6.22265625 C7.08914063 5.83980469 5.99859375 5.45695313 4.875 5.0625 C3.77929688 4.68222656 2.68359375 4.30195313 1.5546875 3.91015625 C0.71164062 3.60980469 -0.13140625 3.30945313 -1 3 C-0.67 2.01 -0.34 1.02 0 0 Z " fill="#63B191" transform="translate(419,219)"/>
<path d="M0 0 C0.33 0 0.66 0 1 0 C1 4.62 1 9.24 1 14 C0.01 13.67 -0.98 13.34 -2 13 C-1.48041715 8.62065881 -0.94324258 4.31196609 0 0 Z " fill="#269E63" transform="translate(482,429)"/>
<path d="M0 0 C1.32 0 2.64 0 4 0 C4 0.66 4 1.32 4 2 C3.54625 2.433125 3.0925 2.86625 2.625 3.3125 C0.65690769 5.35628817 -0.06726871 7.34530324 -1 10 C-1.33 10 -1.66 10 -2 10 C-2 7.69 -2 5.38 -2 3 C-1.34 3 -0.68 3 0 3 C0 2.01 0 1.02 0 0 Z " fill="#48B1DA" transform="translate(188,228)"/>
<path d="M0 0 C0.33 0.66 0.66 1.32 1 2 C-0.258125 1.87625 -1.51625 1.7525 -2.8125 1.625 C-3.87404297 1.52058594 -3.87404297 1.52058594 -4.95703125 1.4140625 C-7 1 -7 1 -10 -1 C-5.97215907 -2.15081169 -3.71901707 -1.96281457 0 0 Z " fill="#41A878" transform="translate(419,219)"/>
<path d="M0 0 C1 2 1 2 0.22265625 4.6015625 C-0.16019531 5.59929687 -0.54304688 6.59703125 -0.9375 7.625 C-1.50791016 9.12933594 -1.50791016 9.12933594 -2.08984375 10.6640625 C-2.39019531 11.43492187 -2.69054687 12.20578125 -3 13 C-3.33 13 -3.66 13 -4 13 C-3.91266424 11.39482903 -3.80447776 9.79078338 -3.6875 8.1875 C-3.62949219 7.29417969 -3.57148438 6.40085937 -3.51171875 5.48046875 C-2.93686419 2.69396 -2.1793144 1.75864246 0 0 Z " fill="#CAEDD8" transform="translate(454,328)"/>
<path d="M0 0 C0.33 0 0.66 0 1 0 C1.3227506 4.62609198 0.84450614 7.28026121 -2 11 C-2.66 11 -3.32 11 -4 11 C-2.95902388 7.13351728 -1.96301592 3.50538557 0 0 Z " fill="#369F68" transform="translate(466,299)"/>
<path d="M0 0 C1.13732426 3.40401948 0.83989957 5.77456664 0.0625 9.25 C-0.13214844 10.14203125 -0.32679688 11.0340625 -0.52734375 11.953125 C-0.68332031 12.62859375 -0.83929688 13.3040625 -1 14 C-1.66 14 -2.32 14 -3 14 C-2.28547412 9.23649415 -1.20465156 4.65798604 0 0 Z " fill="#35A16D" transform="translate(470,285)"/>
<path d="M0 0 C0.33 1.32 0.66 2.64 1 4 C-0.21484375 5.703125 -0.21484375 5.703125 -1.9375 7.25 C-2.50339844 7.77078125 -3.06929688 8.2915625 -3.65234375 8.828125 C-4.09707031 9.21484375 -4.54179687 9.6015625 -5 10 C-5.66 9.67 -6.32 9.34 -7 9 C-4.69 6.03 -2.38 3.06 0 0 Z " fill="#D0F2E1" transform="translate(511,422)"/>
<path d="M0 0 C1 2 1 2 0.25 4.4375 C-0.94131051 6.87968654 -1.88488303 8.3255324 -4 10 C-4.66 10 -5.32 10 -6 10 C-4.34832443 6.4213696 -2.21713508 3.25179812 0 0 Z " fill="#FCE9CA" transform="translate(261,141)"/>
<path d="M0 0 C2.31 0 4.62 0 7 0 C6.01 0.33 5.02 0.66 4 1 C4.33 2.32 4.66 3.64 5 5 C3.0625 4.1875 3.0625 4.1875 1 3 C0.67 2.01 0.34 1.02 0 0 Z " fill="#F1FDF4" transform="translate(265,421)"/>
<path d="M0 0 C0.33 0 0.66 0 1 0 C1.33 1.98 1.66 3.96 2 6 C0.68 6.99 -0.64 7.98 -2 9 C-1.125 2.25 -1.125 2.25 0 0 Z " fill="#C0EBD9" transform="translate(475,426)"/>
<path d="M0 0 C1.35439668 2.70879335 1.06501451 5.00933268 1 8 C-3.875 3.25 -3.875 3.25 -5 1 C-3.35 0.67 -1.7 0.34 0 0 Z " fill="#D1F2E5" transform="translate(435,423)"/>
<path d="M0 0 C3.125 -0.1875 3.125 -0.1875 6 0 C5.01 0.66 4.02 1.32 3 2 C1.32576317 3.32381517 -0.34211215 4.65576661 -2 6 C-2 3 -2 3 0 0 Z " fill="#E2A955" transform="translate(275,135)"/>
</svg>
