<svg xmlns="http://www.w3.org/2000/svg" width="52" height="37" fill="none" viewBox="0 0 52 37"><g id="Group 894" opacity=".3"><path id="Vector" fill="#545454" fill-rule="evenodd" d="M2.45014 3.0966e-06H49.5468C50.2179 3.0966e-06 50.828 0.270416 51.2724 0.707094C51.7221 1.14901 52 1.75834 52 2.42932V33.7454C52 34.4165 51.7221 35.0255 51.2725 35.4671C50.828 35.9037 50.2178 36.1739 49.5468 36.1739H2.45014C1.78019 36.1739 1.17045 35.9035 0.726735 35.4667C0.2779 35.0249 0 34.416 0 33.7454V2.42932C0 1.75882 0.277938 1.14968 0.726853 0.707452C1.17037 0.270575 1.77999 0 2.45014 0L2.45014 3.0966e-06Z" clip-rule="evenodd"/><path id="Vector_2" fill="#F8F7FF" fill-rule="evenodd" d="M2.39076 1.29297C2.09897 1.29297 1.82386 1.40736 1.61625 1.61204C1.41077 1.81468 1.29199 2.08331 1.29199 2.37331V33.8035C1.29199 34.0932 1.41045 34.3615 1.61585 34.5639C1.82354 34.7686 2.09889 34.883 2.39076 34.883H49.6063C49.8994 34.883 50.1758 34.7685 50.3847 34.5631C50.5902 34.361 50.7081 34.093 50.7081 33.8034V2.37331C50.7081 2.08351 50.59 1.81516 50.3843 1.61284C50.1756 1.40748 49.8994 1.29297 49.6063 1.29297H2.39076H2.39076Z" clip-rule="evenodd"/><path id="Vector_3" fill="#AAA" fill-rule="evenodd" d="M5.44236 5.00586C4.84481 5.00586 4.36035 5.512 4.36035 6.1363C4.36035 6.76059 4.84481 7.26673 5.44236 7.26673H46.5578C47.1554 7.26673 47.6399 6.76059 47.6399 6.1363C47.6399 5.512 47.1554 5.00586 46.5578 5.00586H5.44236Z" clip-rule="evenodd"/><path id="Vector_4" fill="#AAA" fill-rule="evenodd" d="M8.21057 28C6.98976 28 6 28.4477 6 29C6 29.5523 6.98976 30 8.21057 30H45.7894C47.0102 30 48 29.5523 48 29C48 28.4477 47.0102 28 45.7894 28H8.21057Z" clip-rule="evenodd"/><path id="Vector_5" fill="#AAA" fill-rule="evenodd" d="M8.21057 20C6.98976 20 6 20.4477 6 21C6 21.5523 6.98976 22 8.21057 22H45.7894C47.0102 22 48 21.5523 48 21C48 20.4477 47.0102 20 45.7894 20H8.21057Z" clip-rule="evenodd"/><path id="Vector_6" fill="#AAA" fill-rule="evenodd" d="M8.21057 13C6.98976 13 6 13.4477 6 14C6 14.5523 6.98976 15 8.21057 15H45.7894C47.0102 15 48 14.5523 48 14C48 13.4477 47.0102 13 45.7894 13H8.21057Z" clip-rule="evenodd"/></g></svg>