<svg xmlns="http://www.w3.org/2000/svg" width="24" height="23" viewBox="0 0 24 23" fill="none">
  <path d="M12 12.4584V20.1251M12 20.1251L8.00003 16.2917M12 20.1251L16 16.2917M4.39303 14.6329C3.57629 13.9482 2.93685 13.0909 2.5252 12.1287C2.11354 11.1665 1.94095 10.1257 2.02105 9.08864C2.10115 8.05155 2.43175 7.04651 2.98674 6.15288C3.54173 5.25925 4.30591 4.50152 5.21894 3.93951C6.13197 3.3775 7.16883 3.02661 8.24766 2.91455C9.32648 2.80249 10.4177 2.93233 11.4352 3.29381C12.4527 3.6553 13.3685 4.23853 14.1104 4.99745C14.8523 5.75636 15.3999 6.67018 15.71 7.66674H17.5C18.4721 7.66663 19.4181 7.96816 20.1964 8.52623C20.9747 9.0843 21.5436 9.86889 21.8178 10.7626C22.092 11.6563 22.0569 12.6111 21.7177 13.4841C21.3785 14.3571 20.7534 15.1014 19.936 15.6056" stroke="black" stroke-width="1.5" stroke-linecap="round" stroke-linejoin="round"/>
</svg>