<svg xmlns="http://www.w3.org/2000/svg" width="17" height="17" viewBox="0 0 17 17" fill="none">
  <path d="M8.5 2.12516H3.54167C3.16594 2.12516 2.80561 2.27442 2.53993 2.54009C2.27426 2.80577 2.125 3.1661 2.125 3.54183V13.4585C2.125 13.8342 2.27426 14.1946 2.53993 14.4602C2.80561 14.7259 3.16594 14.8752 3.54167 14.8752H13.4583C13.8341 14.8752 14.1944 14.7259 14.4601 14.4602C14.7257 14.1946 14.875 13.8342 14.875 13.4585V8.50016M13.0156 1.85954C13.2974 1.57774 13.6796 1.41943 14.0781 1.41943C14.4766 1.41943 14.8588 1.57774 15.1406 1.85954C15.4224 2.14133 15.5807 2.52352 15.5807 2.92204C15.5807 3.32055 15.4224 3.70274 15.1406 3.98454L8.75642 10.3695C8.58822 10.5375 8.38044 10.6605 8.15221 10.7272L6.11717 11.3222C6.05622 11.3399 5.99161 11.341 5.9301 11.3252C5.8686 11.3095 5.81246 11.2775 5.76757 11.2326C5.72267 11.1877 5.69067 11.1316 5.67491 11.0701C5.65916 11.0086 5.66022 10.9439 5.678 10.883L6.273 8.84795C6.33996 8.6199 6.46321 8.41237 6.63142 8.24445L13.0156 1.85954Z" stroke="black" stroke-width="1.2" stroke-linecap="round" stroke-linejoin="round"/>
</svg>