<svg width="52" height="37" viewBox="0 0 52 37" fill="none" xmlns="http://www.w3.org/2000/svg">
<g id="Group 894" opacity="0.3">
<path id="Vector" fill-rule="evenodd" clip-rule="evenodd" d="M2.45014 3.0966e-06H49.5468C50.2179 3.0966e-06 50.828 0.270416 51.2724 0.707094C51.7221 1.14901 52 1.75834 52 2.42932V33.7454C52 34.4165 51.7221 35.0255 51.2725 35.4671C50.828 35.9037 50.2178 36.1739 49.5468 36.1739H2.45014C1.78019 36.1739 1.17045 35.9035 0.726735 35.4667C0.2779 35.0249 0 34.416 0 33.7454V2.42932C0 1.75882 0.277938 1.14968 0.726853 0.707452C1.17037 0.270575 1.77999 0 2.45014 0L2.45014 3.0966e-06Z" fill="#545454"/>
<path id="Vector_2" fill-rule="evenodd" clip-rule="evenodd" d="M2.39076 1.29297C2.09897 1.29297 1.82386 1.40736 1.61625 1.61204C1.41077 1.81468 1.29199 2.08331 1.29199 2.37331V33.8035C1.29199 34.0932 1.41045 34.3615 1.61585 34.5639C1.82354 34.7686 2.09889 34.883 2.39076 34.883H49.6063C49.8994 34.883 50.1758 34.7685 50.3847 34.5631C50.5902 34.361 50.7081 34.093 50.7081 33.8034V2.37331C50.7081 2.08351 50.59 1.81516 50.3843 1.61284C50.1756 1.40748 49.8994 1.29297 49.6063 1.29297H2.39076H2.39076Z" fill="#F8F7FF"/>
<path id="Vector_3" fill-rule="evenodd" clip-rule="evenodd" d="M5.44236 5.00586C4.84481 5.00586 4.36035 5.512 4.36035 6.1363C4.36035 6.76059 4.84481 7.26673 5.44236 7.26673H46.5578C47.1554 7.26673 47.6399 6.76059 47.6399 6.1363C47.6399 5.512 47.1554 5.00586 46.5578 5.00586H5.44236Z" fill="#AAAAAA"/>
<path id="Vector_4" fill-rule="evenodd" clip-rule="evenodd" d="M7.54743 27.7754C6.94659 27.7754 6.45947 28.2815 6.45947 28.9058C6.45947 29.5301 6.94659 30.0363 7.54743 30.0363H26.0423C26.6432 30.0363 27.1303 29.5301 27.1303 28.9058C27.1303 28.2815 26.6432 27.7754 26.0423 27.7754H7.54743Z" fill="#AAAAAA"/>
<path id="Vector_5" fill-rule="evenodd" clip-rule="evenodd" d="M7.54743 20.3477C6.94659 20.3477 6.45947 20.8176 6.45947 21.3973C6.45947 21.9771 6.94659 22.447 7.54743 22.447H26.0423C26.6432 22.447 27.1303 21.9771 27.1303 21.3973C27.1303 20.8176 26.6432 20.3477 26.0423 20.3477H7.54743Z" fill="#AAAAAA"/>
<path id="Vector_6" fill-rule="evenodd" clip-rule="evenodd" d="M7.54743 12.5957C6.94659 12.5957 6.45947 13.1018 6.45947 13.7261C6.45947 14.3504 6.94659 14.8566 7.54743 14.8566H26.0423C26.6432 14.8566 27.1303 14.3504 27.1303 13.7261C27.1303 13.1018 26.6432 12.5957 26.0423 12.5957H7.54743Z" fill="#AAAAAA"/>
<path id="Vector_7" fill-rule="evenodd" clip-rule="evenodd" d="M32.3307 31.1681H31.7613H30.6831V30.0949V29.5281V27.1861C30.6831 26.4657 30.8038 25.7598 31.0284 25.0897C31.258 24.4043 31.5936 23.7687 32.0171 23.2049C32.4407 22.6412 32.9606 22.1399 33.5587 21.7235C34.1414 21.3178 34.7899 20.9997 35.4863 20.7908L35.7824 20.7021L36.3429 20.534L36.7889 20.9159L37.0244 21.1175C37.1786 21.2496 37.3444 21.3677 37.5196 21.4709C37.6997 21.577 37.8806 21.6638 38.0603 21.7302C38.2325 21.7939 38.4228 21.8444 38.6294 21.881C38.8247 21.9155 39.0274 21.9332 39.2356 21.9332C39.4413 21.9332 39.6424 21.9155 39.8369 21.881C40.0339 21.8461 40.2257 21.7941 40.4103 21.7262C40.604 21.6548 40.7844 21.5704 40.9493 21.474C41.1166 21.3761 41.2797 21.2599 41.4367 21.1263L41.6872 20.9132L42.1614 20.5098L42.7485 20.7204L43.0585 20.8317C43.7921 21.0949 44.4307 21.4188 44.9808 21.8073C45.5515 22.2103 46.0279 22.6817 46.4165 23.2252C46.8005 23.7622 47.0906 24.3613 47.2935 25.0264C47.489 25.6671 47.6008 26.3622 47.6354 27.1162L47.6396 27.1623V27.1867H47.6354L47.6369 29.5281L47.6372 30.0949L47.6378 31.1681H46.5633H45.9958H32.3307H32.3307Z" fill="#727272"/>
<path id="Vector_8" fill-rule="evenodd" clip-rule="evenodd" d="M42.8486 18.7865C41.8841 19.751 40.5517 20.3478 39.0806 20.3478C37.6091 20.3478 36.2769 19.7512 35.3125 18.7868C34.348 17.8223 33.7515 16.49 33.7515 15.0186C33.7515 13.5471 34.348 12.2148 35.3124 11.2504C36.2768 10.286 37.6091 9.68945 39.0806 9.68945C40.5518 9.68945 41.8841 10.2861 42.8487 11.2506C43.8131 12.2151 44.4098 13.5474 44.4098 15.0186C44.4098 16.4897 43.8131 17.8221 42.8486 18.7865L42.8486 18.7865Z" fill="#6A6A6A"/>
</g>
</svg>
