<svg width="47" height="47" viewBox="0 0 47 47" fill="none" xmlns="http://www.w3.org/2000/svg">
<path d="M33.9444 36.5556V33.9444H26.1111V26.1111H33.9444V31.3333H39.1667V36.5556H36.5556V41.7778H31.3333V47H26.1111V39.1667H31.3333V36.5556H33.9444ZM47 47H36.5556V41.7778H41.7778V36.5556H47V47ZM0 0H20.8889V20.8889H0V0ZM5.22222 5.22222V15.6667H15.6667V5.22222H5.22222ZM26.1111 0H47V20.8889H26.1111V0ZM31.3333 5.22222V15.6667H41.7778V5.22222H31.3333ZM0 26.1111H20.8889V47H0V26.1111ZM5.22222 31.3333V41.7778H15.6667V31.3333H5.22222ZM39.1667 26.1111H47V31.3333H39.1667V26.1111ZM7.83333 7.83333H13.0556V13.0556H7.83333V7.83333ZM7.83333 33.9444H13.0556V39.1667H7.83333V33.9444ZM33.9444 7.83333H39.1667V13.0556H33.9444V7.83333Z" fill="#2B9348"/>
</svg>
